<?xml version="1.0"?>

<svg width="100%" height="100%" viewBox="95 -40 200 200" version="1.1" xmlns="http://www.w3.org/2000/svg" xmlns:xlink="http://www.w3.org/1999/xlink" xml:space="preserve" xmlns:serif="http://www.serif.com/" style="fill-rule:evenodd;clip-rule:evenodd;stroke-linejoin:round;stroke-miterlimit:2;">
    <g transform="matrix(1,0,0,1,-1051.565022,-664.38416)">
        <g transform="matrix(2.910865,0,0,2.910865,-2308.977889,-1650.50632)">
            <rect x="1154.483" y="804.533" width="5.742" height="22.604" style="fill:rgb(232,103,65);fill-rule:nonzero;"></rect>
            <path d="M1175.264,827.137C1173.775,827.137 1172.568,826.674 1171.641,825.747C1170.714,824.821 1170.251,823.583 1170.251,822.033L1170.251,809.273L1164.6,809.273L1164.6,804.533L1170.251,804.533L1170.251,797.515L1175.993,797.515L1175.993,804.533L1182.191,804.533L1182.191,809.273L1175.993,809.273L1175.993,821.031C1175.993,821.942 1176.418,822.398 1177.269,822.398L1181.644,822.398L1181.644,827.137L1175.264,827.137Z" style="fill:rgb(232,103,65);fill-rule:nonzero;"></path>
            <g transform="matrix(1,0,0,1,0,-2.101057)">
                <path d="M1189.665,833.7L1189.665,802.008C1189.665,800.641 1190.098,799.525 1190.964,798.659C1191.83,797.793 1192.946,797.36 1194.313,797.36L1202.061,797.36L1202.061,802.282L1196.455,802.282C1195.635,802.282 1195.225,802.737 1195.225,803.649L1195.225,832.059C1195.225,832.971 1195.635,833.426 1196.455,833.426L1202.061,833.426L1202.061,838.348L1194.313,838.348C1192.946,838.348 1191.83,837.915 1190.964,837.05C1190.098,836.184 1189.665,835.067 1189.665,833.7Z" style="fill:rgb(232,103,65);"></path>
            </g>
            <path d="M1212.998,827.775C1211.388,827.775 1209.945,827.494 1208.669,826.932C1207.393,826.37 1206.383,825.55 1205.638,824.471C1204.894,823.393 1204.522,822.079 1204.522,820.529C1204.522,818.98 1204.894,817.681 1205.638,816.633C1206.383,815.585 1207.416,814.795 1208.737,814.263C1210.059,813.731 1211.57,813.466 1213.272,813.466L1219.47,813.466L1219.47,812.19C1219.47,811.126 1219.136,810.253 1218.467,809.569C1217.799,808.885 1216.735,808.544 1215.277,808.544C1213.849,808.544 1212.786,808.87 1212.087,809.524C1211.388,810.177 1210.932,811.02 1210.72,812.053L1205.433,810.275C1205.798,809.121 1206.383,808.065 1207.188,807.108C1207.993,806.151 1209.071,805.376 1210.423,804.784C1211.775,804.191 1213.424,803.895 1215.368,803.895C1218.346,803.895 1220.7,804.64 1222.432,806.128C1224.164,807.617 1225.03,809.774 1225.03,812.6L1225.03,821.031C1225.03,821.942 1225.455,822.398 1226.306,822.398L1228.129,822.398L1228.129,827.137L1224.3,827.137C1223.176,827.137 1222.25,826.864 1221.52,826.317C1220.791,825.77 1220.427,825.041 1220.427,824.13L1220.427,824.084L1219.561,824.084C1219.439,824.449 1219.166,824.927 1218.741,825.52C1218.315,826.112 1217.647,826.636 1216.735,827.092C1215.824,827.548 1214.578,827.775 1212.998,827.775ZM1214.001,823.127C1215.611,823.127 1216.925,822.679 1217.943,821.783C1218.961,820.886 1219.47,819.694 1219.47,818.205L1219.47,817.749L1213.682,817.749C1212.619,817.749 1211.783,817.977 1211.175,818.433C1210.568,818.889 1210.264,819.527 1210.264,820.347C1210.264,821.167 1210.583,821.836 1211.221,822.352C1211.859,822.869 1212.786,823.127 1214.001,823.127Z" style="fill:rgb(232,103,65);fill-rule:nonzero;"></path>
            <rect x="1232.321" y="804.533" width="5.742" height="22.604" style="fill:rgb(232,103,65);fill-rule:nonzero;"></rect>
            <g transform="matrix(1,0,0,1,0,-2.101057)">
                <path d="M1248.819,832.059L1248.819,803.649C1248.819,802.737 1248.409,802.282 1247.588,802.282L1241.983,802.282L1241.983,797.36L1249.73,797.36C1251.097,797.36 1252.214,797.793 1253.08,798.659C1253.946,799.525 1254.379,800.641 1254.379,802.008L1254.379,833.7C1254.379,835.067 1253.946,836.184 1253.08,837.05C1252.214,837.915 1251.097,838.348 1249.73,838.348L1241.983,838.348L1241.983,833.426L1247.588,833.426C1248.409,833.426 1248.819,832.971 1248.819,832.059Z" style="fill:rgb(232,103,65);"></path>
            </g>
            <g transform="matrix(1,0,0,1,0,0.022336)">
                <rect x="1260.759" y="795.236" width="5.742" height="31.901" style="fill:rgb(232,103,65);fill-rule:nonzero;"></rect>
            </g>
            <path d="M1275.342,836.252L1275.342,831.239L1287.647,831.239C1288.497,831.239 1288.923,830.783 1288.923,829.872L1288.923,824.175L1288.103,824.175C1287.859,824.692 1287.48,825.208 1286.963,825.725C1286.447,826.241 1285.748,826.667 1284.867,827.001C1283.986,827.335 1282.862,827.502 1281.494,827.502C1279.732,827.502 1278.19,827.099 1276.869,826.294C1275.547,825.489 1274.522,824.373 1273.793,822.945C1273.063,821.517 1272.699,819.876 1272.699,818.023L1272.699,804.533L1278.441,804.533L1278.441,817.567C1278.441,819.269 1278.859,820.545 1279.694,821.395C1280.53,822.246 1281.722,822.671 1283.272,822.671C1285.034,822.671 1286.401,822.086 1287.373,820.917C1288.346,819.747 1288.832,818.114 1288.832,816.018L1288.832,804.533L1294.574,804.533L1294.574,831.148C1294.574,832.697 1294.118,833.935 1293.207,834.862C1292.295,835.789 1291.08,836.252 1289.561,836.252L1275.342,836.252Z" style="fill:rgb(232,103,65);fill-rule:nonzero;"></path>
        </g>
    </g>
</svg>